<?xml version="1.0" encoding="UTF-8"?>
<svg id="Lager_4" xmlns="http://www.w3.org/2000/svg" version="1.1" viewBox="0 0 901.23 300.49">
  <!-- Generator: Adobe Illustrator 29.8.2, SVG Export Plug-In . SVG Version: 2.1.1 Build 3)  -->
  <defs>
    <style>
      .st0 {
        fill: none;
        stroke: #f0f;
        stroke-miterlimit: 10;
        stroke-width: 3px;
      }

      .st1 {
        fill: #00fefc;
      }
    </style>
  </defs>
  <g>
    <path class="st1" d="M165.6,157.56l24.92,34.82h-99.68l9.16-34.82h65.6M167.14,154.56h-69.45l-.59,2.24-9.16,34.82-.99,3.76h109.41l-3.4-4.75-24.92-34.82-.9-1.25h0Z"/>
    <path class="st1" d="M289.47,157.56l-173.9,128.27h-50.58l126.25-93.45h-.73l48.38-34.82h50.58M298.59,154.56h-60.66l-.79.57-48.38,34.82-7.55,5.43h.94l-118.94,88.04-7.31,5.41h60.66l.79-.59,173.9-128.27,7.34-5.41h0Z"/>
    <path class="st1" d="M263.63,251.02l-9.34,34.82h-65.6l-25.65-34.82h100.6M267.54,248.02h-110.45l3.52,4.78,25.65,34.82.9,1.22h69.42l.6-2.22,9.34-34.82,1.01-3.78h0Z"/>
    <path class="st1" d="M456.39,157.56l20.16,21.07-21.81,86.12-31.52,21.07h-137.06l-20.16-21.07,4.21-19.79,44.71-23.27-5.86,21.62,7.51,7.7h92.35l11.91-7.7,12.64-43.24-7.7-7.7h-92.35l-11.73,7.7-6.05,21.62-32.25-23.27,4.4-19.79,31.52-21.07h137.06M457.67,154.56h-139.26l-.76.51-31.52,21.07-1,.67-.26,1.17-4.4,19.79-.43,1.93,1.6,1.16,28,20.2-40.82,21.25-1.25.65-.29,1.38-4.21,19.79-.33,1.55,1.1,1.15,20.16,21.07.89.93h139.26l.76-.51,31.52-21.07.96-.64.28-1.12,21.81-86.12.41-1.61-1.15-1.2-20.16-21.07-.89-.93h0ZM334.33,195.38h90.21l5.56,5.56-11.83,40.47-10.23,6.61h-90.21l-5.43-5.57,4.4-16.23.58.42,1.16-4.14,5.74-20.54,10.04-6.59h0Z"/>
    <path class="st1" d="M682.68,157.56l-18.87,71.83-44.89,21.62,28.77,34.82h-48.19l-75.86-93.45-25.65,93.45h-38.48l18.87-71.83,44.89-21.62-28.77-34.82h48.38l75.68,93.45,25.65-93.45h38.48M686.57,154.56h-44.66l-.61,2.21-24.11,87.82-72-88.91-.9-1.11h-56.18l4.06,4.91,26.33,31.86-41.44,19.96-1.25.6-.35,1.34-18.87,71.83-.99,3.76h44.66l.61-2.21,24.11-87.83,72.18,88.92.9,1.11h55.99l-4.06-4.91-26.33-31.86,41.44-19.96,1.25-.6.35-1.34,18.87-71.83.99-3.76h0Z"/>
    <path class="st1" d="M722.07,192.38l-13.56,50.94,7.33,7.7h141.28l-9.34,34.82h-162.54l-.73-.18-19.24-20.89,12.09-49.11,44.71-23.27M726.71,186.58l-6.03,3.14-44.71,23.27-1.2.63-.32,1.32-12.09,49.11-.39,1.56,1.09,1.19,19.24,20.89.61.66.87.22.73.18.36.09h165.21l.6-2.22,9.34-34.82,1.01-3.78h-143.9l-5.28-5.55,13.13-49.32,1.75-6.57h0Z"/>
    <path class="st1" d="M882.22,157.56l-9.16,34.82h-149.71l-29.32-34.82h188.19M886.11,154.56h-198.53l4.15,4.93,29.32,34.82.9,1.07h153.42l.59-2.24,9.16-34.82.99-3.76h0Z"/>
    <path class="st1" d="M869.39,204.84l-9.16,34.82h-111.59l-28.77-34.82h149.52M873.28,201.84h-159.79l4.06,4.91,28.77,34.82.9,1.09h115.32l.59-2.24,9.16-34.82.99-3.76h0Z"/>
  </g>
  <g>
    <polygon class="st0" points="71.67 57.17 83.21 49.47 175.75 49.47 183.26 57.17 182.53 57.72 221.19 57.72 226.51 35.73 206.35 14.66 69.47 14.66 37.77 35.73 33.37 55.52 65.62 78.79 71.67 57.17"/>
    <polygon class="st0" points="204.7 121.86 219.54 63.58 124.99 63.58 115.64 98.4 171.72 98.4 170.8 100.42 158.89 108.11 66.35 108.11 59.02 100.42 64.89 78.79 20.18 102.06 15.96 121.86 36.3 142.93 173.18 142.93 204.7 121.86"/>
    <polygon class="st0" points="247.93 142.93 272.49 49.47 227.77 72.75 209.45 142.93 247.93 142.93"/>
    <polygon class="st0" points="375.65 49.47 383.35 57.17 377.12 75.68 365.39 83.56 264.61 83.56 288.79 118.37 324.71 118.37 348.71 142.93 397.64 142.93 373.82 118.37 379.5 118.37 411.02 97.3 426.41 35.73 406.25 14.66 244.45 14.66 273.77 49.47 375.65 49.47"/>
    <polygon class="st0" points="484.12 14.66 443.25 14.66 433.91 49.47 508.3 49.47 484.12 14.66"/>
    <polygon class="st0" points="418.15 108.11 408.8 142.93 597.54 142.93 606.89 108.11 531.76 108.11 547.52 49.47 622.65 49.47 631.99 14.66 551.55 14.66 508.3 49.47 493.28 108.11 418.15 108.11"/>
    <polygon class="st0" points="763.18 49.47 779.3 66.33 771.79 91.25 746.14 108.11 655.98 108.11 671.19 49.47 626.48 72.75 608.16 142.93 760.25 142.93 805.51 112.69 822.73 44.89 793.6 14.66 643.16 14.66 672.47 49.47 763.18 49.47"/>
  </g>
</svg>