<?xml version="1.0" encoding="UTF-8"?>
<svg id="Lager_3_kopia" xmlns="http://www.w3.org/2000/svg" version="1.1" viewBox="0 0 901.23 300.49">
  <!-- Generator: Adobe Illustrator 29.8.2, SVG Export Plug-In . SVG Version: 2.1.1 Build 3)  -->
  <defs>
    <style>
      .st0 {
        fill: #f0f;
      }

      .st1 {
        fill: #00fefc;
      }
    </style>
  </defs>
  <path d="M786.67,142.91l31.66-21.15,20.62-81.16L799.83,0h-253.45l-35.02,28.19L491.78,0h-59.77l-4.27,15.92L412.52,0H65.04L24.74,26.79l-7.77,34.97,20.49,14.79-30.18,15.71L0,126.43l30.08,31.16h54.76l-13.01,49.45h74.99l-126.25,93.45h99.84l39.45-29.1,21.44,29.1h84.25l2.91-10.86.23-.87,11.22,11.73h147.78l15.54-10.39-2.73,10.39h68.67l21.06-76.74,62.29,76.74h266.5s42.22-157.59,42.22-157.59h-114.57Z"/>
  <polygon class="st1" points="100 157.56 90.84 192.38 190.52 192.38 165.6 157.56 100 157.56"/>
  <polygon class="st1" points="238.9 157.56 190.52 192.38 191.25 192.38 65 285.83 115.57 285.83 289.47 157.56 238.9 157.56"/>
  <polygon class="st1" points="188.69 285.83 254.29 285.83 263.63 251.02 163.03 251.02 188.69 285.83"/>
  <polygon class="st1" points="456.39 157.56 319.33 157.56 287.81 178.64 283.41 198.43 315.66 221.7 321.71 200.08 333.44 192.38 425.79 192.38 433.49 200.08 420.84 243.32 408.93 251.02 316.58 251.02 309.07 243.32 314.93 221.7 270.22 244.97 266 264.76 286.16 285.83 423.23 285.83 454.74 264.76 476.55 178.64 456.39 157.56"/>
  <polygon class="st1" points="682.68 157.56 644.2 157.56 618.55 251.02 542.87 157.56 494.49 157.56 523.26 192.38 478.37 214 459.49 285.83 497.98 285.83 523.63 192.38 599.49 285.83 647.68 285.83 618.91 251.02 663.81 229.4 682.68 157.56"/>
  <polygon class="st1" points="708.51 243.32 722.07 192.38 677.36 215.65 665.26 264.76 684.5 285.65 685.23 285.83 847.77 285.83 857.11 251.02 715.84 251.02 708.51 243.32"/>
  <polygon class="st1" points="694.03 157.56 723.35 192.38 873.06 192.38 882.22 157.56 694.03 157.56"/>
  <polygon class="st1" points="748.64 239.66 860.23 239.66 869.39 204.84 719.87 204.84 748.64 239.66"/>
  <g>
    <polygon class="st0" points="71.67 57.17 83.21 49.47 175.75 49.47 183.26 57.17 182.53 57.72 221.19 57.72 226.51 35.73 206.35 14.66 69.47 14.66 37.77 35.73 33.37 55.52 65.62 78.79 71.67 57.17"/>
    <polygon class="st0" points="204.7 121.86 219.54 63.58 124.99 63.58 115.64 98.4 171.72 98.4 170.8 100.42 158.89 108.11 66.35 108.11 59.02 100.42 64.89 78.79 20.18 102.06 15.96 121.86 36.3 142.93 173.18 142.93 204.7 121.86"/>
    <polygon class="st0" points="247.93 142.93 272.49 49.47 227.77 72.75 209.45 142.93 247.93 142.93"/>
    <polygon class="st0" points="375.65 49.47 383.35 57.17 377.12 75.68 365.39 83.56 264.61 83.56 288.79 118.37 324.71 118.37 348.71 142.93 397.64 142.93 373.82 118.37 379.5 118.37 411.02 97.3 426.41 35.73 406.25 14.66 244.45 14.66 273.77 49.47 375.65 49.47"/>
    <polygon class="st0" points="484.12 14.66 443.25 14.66 433.91 49.47 508.3 49.47 484.12 14.66"/>
    <polygon class="st0" points="418.15 108.11 408.8 142.93 597.54 142.93 606.89 108.11 531.76 108.11 547.52 49.47 622.65 49.47 631.99 14.66 551.55 14.66 508.3 49.47 493.28 108.11 418.15 108.11"/>
    <polygon class="st0" points="763.18 49.47 779.3 66.33 771.79 91.25 746.14 108.11 655.98 108.11 671.19 49.47 626.48 72.75 608.16 142.93 760.25 142.93 805.51 112.69 822.73 44.89 793.6 14.66 643.16 14.66 672.47 49.47 763.18 49.47"/>
  </g>
</svg>